<?xml version="1.0" encoding="utf-8" standalone="no"?>
<!DOCTYPE svg PUBLIC "-//W3C//DTD SVG 1.1//EN"
  "http://www.w3.org/Graphics/SVG/1.1/DTD/svg11.dtd">
<!-- Created with matplotlib (https://matplotlib.org/) -->
<svg height="262.19625pt" version="1.1" viewBox="0 0 385.78125 262.19625" width="385.78125pt" xmlns="http://www.w3.org/2000/svg" xmlns:xlink="http://www.w3.org/1999/xlink">
 <metadata>
  <rdf:RDF xmlns:cc="http://creativecommons.org/ns#" xmlns:dc="http://purl.org/dc/elements/1.1/" xmlns:rdf="http://www.w3.org/1999/02/22-rdf-syntax-ns#">
   <cc:Work>
    <dc:type rdf:resource="http://purl.org/dc/dcmitype/StillImage"/>
    <dc:date>2021-06-05T09:32:38.439018</dc:date>
    <dc:format>image/svg+xml</dc:format>
    <dc:creator>
     <cc:Agent>
      <dc:title>Matplotlib v3.3.0, https://matplotlib.org/</dc:title>
     </cc:Agent>
    </dc:creator>
   </cc:Work>
  </rdf:RDF>
 </metadata>
 <defs>
  <style type="text/css">*{stroke-linecap:butt;stroke-linejoin:round;}</style>
 </defs>
 <g id="figure_1">
  <g id="patch_1">
   <path d="M 0 262.19625 
L 385.78125 262.19625 
L 385.78125 0 
L 0 0 
z
" style="fill:none;"/>
  </g>
  <g id="axes_1">
   <g id="patch_2">
    <path d="M 43.78125 224.64 
L 378.58125 224.64 
L 378.58125 7.2 
L 43.78125 7.2 
z
" style="fill:#ffffff;"/>
   </g>
   <g id="PathCollection_1">
    <defs>
     <path d="M 0 3 
C 0.795609 3 1.55874 2.683901 2.12132 2.12132 
C 2.683901 1.55874 3 0.795609 3 0 
C 3 -0.795609 2.683901 -1.55874 2.12132 -2.12132 
C 1.55874 -2.683901 0.795609 -3 0 -3 
C -0.795609 -3 -1.55874 -2.683901 -2.12132 -2.12132 
C -2.683901 -1.55874 -3 -0.795609 -3 0 
C -3 0.795609 -2.683901 1.55874 -2.12132 2.12132 
C -1.55874 2.683901 -0.795609 3 0 3 
z
" id="m4823778409" style="stroke:#1f77b4;"/>
    </defs>
    <g clip-path="url(#pf4cde14d08)">
     <use style="fill:#1f77b4;stroke:#1f77b4;" x="58.999432" xlink:href="#m4823778409" y="213.189637"/>
     <use style="fill:#1f77b4;stroke:#1f77b4;" x="61.843952" xlink:href="#m4823778409" y="204.199268"/>
     <use style="fill:#1f77b4;stroke:#1f77b4;" x="64.688472" xlink:href="#m4823778409" y="189.690267"/>
     <use style="fill:#1f77b4;stroke:#1f77b4;" x="67.532992" xlink:href="#m4823778409" y="160.889428"/>
     <use style="fill:#1f77b4;stroke:#1f77b4;" x="70.377512" xlink:href="#m4823778409" y="113.975251"/>
     <use style="fill:#1f77b4;stroke:#1f77b4;" x="73.222032" xlink:href="#m4823778409" y="46.05733"/>
     <use style="fill:#1f77b4;stroke:#1f77b4;" x="76.066552" xlink:href="#m4823778409" y="20.626489"/>
     <use style="fill:#1f77b4;stroke:#1f77b4;" x="78.911072" xlink:href="#m4823778409" y="68.577644"/>
     <use style="fill:#1f77b4;stroke:#1f77b4;" x="81.755592" xlink:href="#m4823778409" y="132.181604"/>
     <use style="fill:#1f77b4;stroke:#1f77b4;" x="84.600112" xlink:href="#m4823778409" y="179.721443"/>
     <use style="fill:#1f77b4;stroke:#1f77b4;" x="87.444631" xlink:href="#m4823778409" y="203.65998"/>
     <use style="fill:#1f77b4;stroke:#1f77b4;" x="90.289151" xlink:href="#m4823778409" y="213.087682"/>
     <use style="fill:#1f77b4;stroke:#1f77b4;" x="93.133671" xlink:href="#m4823778409" y="212.614716"/>
     <use style="fill:#1f77b4;stroke:#1f77b4;" x="95.978191" xlink:href="#m4823778409" y="204.82126"/>
     <use style="fill:#1f77b4;stroke:#1f77b4;" x="98.822711" xlink:href="#m4823778409" y="190.749684"/>
     <use style="fill:#1f77b4;stroke:#1f77b4;" x="101.667231" xlink:href="#m4823778409" y="170.283081"/>
     <use style="fill:#1f77b4;stroke:#1f77b4;" x="104.511751" xlink:href="#m4823778409" y="128.65969"/>
     <use style="fill:#1f77b4;stroke:#1f77b4;" x="107.356271" xlink:href="#m4823778409" y="58.590186"/>
     <use style="fill:#1f77b4;stroke:#1f77b4;" x="110.200791" xlink:href="#m4823778409" y="23.761125"/>
     <use style="fill:#1f77b4;stroke:#1f77b4;" x="113.045311" xlink:href="#m4823778409" y="57.79517"/>
     <use style="fill:#1f77b4;stroke:#1f77b4;" x="115.889831" xlink:href="#m4823778409" y="128.766349"/>
     <use style="fill:#1f77b4;stroke:#1f77b4;" x="118.734351" xlink:href="#m4823778409" y="177.163693"/>
     <use style="fill:#1f77b4;stroke:#1f77b4;" x="121.578871" xlink:href="#m4823778409" y="204.07299"/>
     <use style="fill:#1f77b4;stroke:#1f77b4;" x="124.423391" xlink:href="#m4823778409" y="213.597429"/>
     <use style="fill:#1f77b4;stroke:#1f77b4;" x="127.267911" xlink:href="#m4823778409" y="211.648561"/>
     <use style="fill:#1f77b4;stroke:#1f77b4;" x="130.112431" xlink:href="#m4823778409" y="203.960764"/>
     <use style="fill:#1f77b4;stroke:#1f77b4;" x="132.956951" xlink:href="#m4823778409" y="191.229784"/>
     <use style="fill:#1f77b4;stroke:#1f77b4;" x="135.801471" xlink:href="#m4823778409" y="171.250448"/>
     <use style="fill:#1f77b4;stroke:#1f77b4;" x="138.645991" xlink:href="#m4823778409" y="125.715881"/>
     <use style="fill:#1f77b4;stroke:#1f77b4;" x="141.490511" xlink:href="#m4823778409" y="62.826431"/>
     <use style="fill:#1f77b4;stroke:#1f77b4;" x="144.335031" xlink:href="#m4823778409" y="27.336586"/>
     <use style="fill:#1f77b4;stroke:#1f77b4;" x="147.179551" xlink:href="#m4823778409" y="62.865647"/>
     <use style="fill:#1f77b4;stroke:#1f77b4;" x="150.024071" xlink:href="#m4823778409" y="129.217301"/>
     <use style="fill:#1f77b4;stroke:#1f77b4;" x="152.868591" xlink:href="#m4823778409" y="186.574784"/>
     <use style="fill:#1f77b4;stroke:#1f77b4;" x="155.713111" xlink:href="#m4823778409" y="203.132133"/>
     <use style="fill:#1f77b4;stroke:#1f77b4;" x="158.557631" xlink:href="#m4823778409" y="213.693352"/>
     <use style="fill:#1f77b4;stroke:#1f77b4;" x="161.402151" xlink:href="#m4823778409" y="214.215877"/>
     <use style="fill:#1f77b4;stroke:#1f77b4;" x="164.246671" xlink:href="#m4823778409" y="207.799048"/>
     <use style="fill:#1f77b4;stroke:#1f77b4;" x="167.091191" xlink:href="#m4823778409" y="190.793468"/>
     <use style="fill:#1f77b4;stroke:#1f77b4;" x="169.93571" xlink:href="#m4823778409" y="155.486315"/>
     <use style="fill:#1f77b4;stroke:#1f77b4;" x="172.78023" xlink:href="#m4823778409" y="109.952456"/>
     <use style="fill:#1f77b4;stroke:#1f77b4;" x="175.62475" xlink:href="#m4823778409" y="44.183073"/>
     <use style="fill:#1f77b4;stroke:#1f77b4;" x="178.46927" xlink:href="#m4823778409" y="17.083636"/>
     <use style="fill:#1f77b4;stroke:#1f77b4;" x="181.31379" xlink:href="#m4823778409" y="59.66245"/>
     <use style="fill:#1f77b4;stroke:#1f77b4;" x="184.15831" xlink:href="#m4823778409" y="132.367764"/>
     <use style="fill:#1f77b4;stroke:#1f77b4;" x="187.00283" xlink:href="#m4823778409" y="176.667114"/>
     <use style="fill:#1f77b4;stroke:#1f77b4;" x="189.84735" xlink:href="#m4823778409" y="203.573431"/>
     <use style="fill:#1f77b4;stroke:#1f77b4;" x="192.69187" xlink:href="#m4823778409" y="213.121142"/>
     <use style="fill:#1f77b4;stroke:#1f77b4;" x="195.53639" xlink:href="#m4823778409" y="212.886758"/>
     <use style="fill:#1f77b4;stroke:#1f77b4;" x="198.38091" xlink:href="#m4823778409" y="206.022897"/>
     <use style="fill:#1f77b4;stroke:#1f77b4;" x="201.22543" xlink:href="#m4823778409" y="191.56728"/>
     <use style="fill:#1f77b4;stroke:#1f77b4;" x="204.06995" xlink:href="#m4823778409" y="170.178931"/>
     <use style="fill:#1f77b4;stroke:#1f77b4;" x="206.91447" xlink:href="#m4823778409" y="129.10971"/>
     <use style="fill:#1f77b4;stroke:#1f77b4;" x="209.75899" xlink:href="#m4823778409" y="63.408478"/>
     <use style="fill:#1f77b4;stroke:#1f77b4;" x="212.60351" xlink:href="#m4823778409" y="20.317785"/>
     <use style="fill:#1f77b4;stroke:#1f77b4;" x="215.44803" xlink:href="#m4823778409" y="56.271322"/>
     <use style="fill:#1f77b4;stroke:#1f77b4;" x="218.29255" xlink:href="#m4823778409" y="129.436236"/>
     <use style="fill:#1f77b4;stroke:#1f77b4;" x="221.13707" xlink:href="#m4823778409" y="180.911335"/>
     <use style="fill:#1f77b4;stroke:#1f77b4;" x="223.98159" xlink:href="#m4823778409" y="204.758158"/>
     <use style="fill:#1f77b4;stroke:#1f77b4;" x="226.82611" xlink:href="#m4823778409" y="213.127122"/>
     <use style="fill:#1f77b4;stroke:#1f77b4;" x="229.67063" xlink:href="#m4823778409" y="211.449541"/>
     <use style="fill:#1f77b4;stroke:#1f77b4;" x="232.51515" xlink:href="#m4823778409" y="204.781953"/>
     <use style="fill:#1f77b4;stroke:#1f77b4;" x="235.35967" xlink:href="#m4823778409" y="185.922376"/>
     <use style="fill:#1f77b4;stroke:#1f77b4;" x="238.20419" xlink:href="#m4823778409" y="150.015196"/>
     <use style="fill:#1f77b4;stroke:#1f77b4;" x="241.04871" xlink:href="#m4823778409" y="113.225504"/>
     <use style="fill:#1f77b4;stroke:#1f77b4;" x="243.89323" xlink:href="#m4823778409" y="46.76723"/>
     <use style="fill:#1f77b4;stroke:#1f77b4;" x="246.73775" xlink:href="#m4823778409" y="26.146249"/>
     <use style="fill:#1f77b4;stroke:#1f77b4;" x="249.58227" xlink:href="#m4823778409" y="72.781237"/>
     <use style="fill:#1f77b4;stroke:#1f77b4;" x="252.42679" xlink:href="#m4823778409" y="133.789373"/>
     <use style="fill:#1f77b4;stroke:#1f77b4;" x="255.271309" xlink:href="#m4823778409" y="183.989696"/>
     <use style="fill:#1f77b4;stroke:#1f77b4;" x="258.115829" xlink:href="#m4823778409" y="204.689707"/>
     <use style="fill:#1f77b4;stroke:#1f77b4;" x="260.960349" xlink:href="#m4823778409" y="213.56185"/>
     <use style="fill:#1f77b4;stroke:#1f77b4;" x="263.804869" xlink:href="#m4823778409" y="213.894473"/>
     <use style="fill:#1f77b4;stroke:#1f77b4;" x="266.649389" xlink:href="#m4823778409" y="205.669601"/>
     <use style="fill:#1f77b4;stroke:#1f77b4;" x="269.493909" xlink:href="#m4823778409" y="194.176364"/>
     <use style="fill:#1f77b4;stroke:#1f77b4;" x="272.338429" xlink:href="#m4823778409" y="173.41035"/>
     <use style="fill:#1f77b4;stroke:#1f77b4;" x="275.182949" xlink:href="#m4823778409" y="130.647611"/>
     <use style="fill:#1f77b4;stroke:#1f77b4;" x="278.027469" xlink:href="#m4823778409" y="54.066131"/>
     <use style="fill:#1f77b4;stroke:#1f77b4;" x="280.871989" xlink:href="#m4823778409" y="23.9404"/>
     <use style="fill:#1f77b4;stroke:#1f77b4;" x="283.716509" xlink:href="#m4823778409" y="56.632849"/>
     <use style="fill:#1f77b4;stroke:#1f77b4;" x="286.561029" xlink:href="#m4823778409" y="125.319872"/>
     <use style="fill:#1f77b4;stroke:#1f77b4;" x="289.405549" xlink:href="#m4823778409" y="177.974827"/>
     <use style="fill:#1f77b4;stroke:#1f77b4;" x="292.250069" xlink:href="#m4823778409" y="204.412408"/>
     <use style="fill:#1f77b4;stroke:#1f77b4;" x="295.094589" xlink:href="#m4823778409" y="213.711656"/>
     <use style="fill:#1f77b4;stroke:#1f77b4;" x="297.939109" xlink:href="#m4823778409" y="211.664113"/>
     <use style="fill:#1f77b4;stroke:#1f77b4;" x="300.783629" xlink:href="#m4823778409" y="206.376259"/>
     <use style="fill:#1f77b4;stroke:#1f77b4;" x="303.628149" xlink:href="#m4823778409" y="190.657245"/>
     <use style="fill:#1f77b4;stroke:#1f77b4;" x="306.472669" xlink:href="#m4823778409" y="171.672034"/>
     <use style="fill:#1f77b4;stroke:#1f77b4;" x="309.317189" xlink:href="#m4823778409" y="125.030649"/>
     <use style="fill:#1f77b4;stroke:#1f77b4;" x="312.161709" xlink:href="#m4823778409" y="49.483468"/>
     <use style="fill:#1f77b4;stroke:#1f77b4;" x="315.006229" xlink:href="#m4823778409" y="17.667677"/>
     <use style="fill:#1f77b4;stroke:#1f77b4;" x="317.850749" xlink:href="#m4823778409" y="59.949423"/>
     <use style="fill:#1f77b4;stroke:#1f77b4;" x="320.695269" xlink:href="#m4823778409" y="128.228038"/>
     <use style="fill:#1f77b4;stroke:#1f77b4;" x="323.539789" xlink:href="#m4823778409" y="179.750647"/>
     <use style="fill:#1f77b4;stroke:#1f77b4;" x="326.384309" xlink:href="#m4823778409" y="204.581385"/>
     <use style="fill:#1f77b4;stroke:#1f77b4;" x="329.228829" xlink:href="#m4823778409" y="214.756364"/>
     <use style="fill:#1f77b4;stroke:#1f77b4;" x="332.073349" xlink:href="#m4823778409" y="213.779374"/>
     <use style="fill:#1f77b4;stroke:#1f77b4;" x="334.917869" xlink:href="#m4823778409" y="205.583645"/>
     <use style="fill:#1f77b4;stroke:#1f77b4;" x="337.762388" xlink:href="#m4823778409" y="192.517102"/>
     <use style="fill:#1f77b4;stroke:#1f77b4;" x="340.606908" xlink:href="#m4823778409" y="161.365322"/>
     <use style="fill:#1f77b4;stroke:#1f77b4;" x="343.451428" xlink:href="#m4823778409" y="112.727507"/>
     <use style="fill:#1f77b4;stroke:#1f77b4;" x="346.295948" xlink:href="#m4823778409" y="42.182968"/>
     <use style="fill:#1f77b4;stroke:#1f77b4;" x="349.140468" xlink:href="#m4823778409" y="23.820651"/>
     <use style="fill:#1f77b4;stroke:#1f77b4;" x="351.984988" xlink:href="#m4823778409" y="65.545032"/>
     <use style="fill:#1f77b4;stroke:#1f77b4;" x="354.829508" xlink:href="#m4823778409" y="131.714989"/>
     <use style="fill:#1f77b4;stroke:#1f77b4;" x="357.674028" xlink:href="#m4823778409" y="180.144213"/>
     <use style="fill:#1f77b4;stroke:#1f77b4;" x="360.518548" xlink:href="#m4823778409" y="205.675271"/>
     <use style="fill:#1f77b4;stroke:#1f77b4;" x="363.363068" xlink:href="#m4823778409" y="213.164606"/>
    </g>
   </g>
   <g id="matplotlib.axis_1">
    <g id="xtick_1">
     <g id="line2d_1">
      <defs>
       <path d="M 0 0 
L 0 3.5 
" id="m1819897810" style="stroke:#000000;stroke-width:0.8;"/>
      </defs>
      <g>
       <use style="stroke:#000000;stroke-width:0.8;" x="58.999432" xlink:href="#m1819897810" y="224.64"/>
      </g>
     </g>
     <g id="text_1">
      <!-- 0 -->
      <g transform="translate(55.818182 239.238438)scale(0.1 -0.1)">
       <defs>
        <path d="M 31.78125 66.40625 
Q 24.171875 66.40625 20.328125 58.90625 
Q 16.5 51.421875 16.5 36.375 
Q 16.5 21.390625 20.328125 13.890625 
Q 24.171875 6.390625 31.78125 6.390625 
Q 39.453125 6.390625 43.28125 13.890625 
Q 47.125 21.390625 47.125 36.375 
Q 47.125 51.421875 43.28125 58.90625 
Q 39.453125 66.40625 31.78125 66.40625 
z
M 31.78125 74.21875 
Q 44.046875 74.21875 50.515625 64.515625 
Q 56.984375 54.828125 56.984375 36.375 
Q 56.984375 17.96875 50.515625 8.265625 
Q 44.046875 -1.421875 31.78125 -1.421875 
Q 19.53125 -1.421875 13.0625 8.265625 
Q 6.59375 17.96875 6.59375 36.375 
Q 6.59375 54.828125 13.0625 64.515625 
Q 19.53125 74.21875 31.78125 74.21875 
z
" id="DejaVuSans-48"/>
       </defs>
       <use xlink:href="#DejaVuSans-48"/>
      </g>
     </g>
    </g>
    <g id="xtick_2">
     <g id="line2d_2">
      <g>
       <use style="stroke:#000000;stroke-width:0.8;" x="115.889831" xlink:href="#m1819897810" y="224.64"/>
      </g>
     </g>
     <g id="text_2">
      <!-- 20 -->
      <g transform="translate(109.527331 239.238438)scale(0.1 -0.1)">
       <defs>
        <path d="M 19.1875 8.296875 
L 53.609375 8.296875 
L 53.609375 0 
L 7.328125 0 
L 7.328125 8.296875 
Q 12.9375 14.109375 22.625 23.890625 
Q 32.328125 33.6875 34.8125 36.53125 
Q 39.546875 41.84375 41.421875 45.53125 
Q 43.3125 49.21875 43.3125 52.78125 
Q 43.3125 58.59375 39.234375 62.25 
Q 35.15625 65.921875 28.609375 65.921875 
Q 23.96875 65.921875 18.8125 64.3125 
Q 13.671875 62.703125 7.8125 59.421875 
L 7.8125 69.390625 
Q 13.765625 71.78125 18.9375 73 
Q 24.125 74.21875 28.421875 74.21875 
Q 39.75 74.21875 46.484375 68.546875 
Q 53.21875 62.890625 53.21875 53.421875 
Q 53.21875 48.921875 51.53125 44.890625 
Q 49.859375 40.875 45.40625 35.40625 
Q 44.1875 33.984375 37.640625 27.21875 
Q 31.109375 20.453125 19.1875 8.296875 
z
" id="DejaVuSans-50"/>
       </defs>
       <use xlink:href="#DejaVuSans-50"/>
       <use x="63.623047" xlink:href="#DejaVuSans-48"/>
      </g>
     </g>
    </g>
    <g id="xtick_3">
     <g id="line2d_3">
      <g>
       <use style="stroke:#000000;stroke-width:0.8;" x="172.78023" xlink:href="#m1819897810" y="224.64"/>
      </g>
     </g>
     <g id="text_3">
      <!-- 40 -->
      <g transform="translate(166.41773 239.238438)scale(0.1 -0.1)">
       <defs>
        <path d="M 37.796875 64.3125 
L 12.890625 25.390625 
L 37.796875 25.390625 
z
M 35.203125 72.90625 
L 47.609375 72.90625 
L 47.609375 25.390625 
L 58.015625 25.390625 
L 58.015625 17.1875 
L 47.609375 17.1875 
L 47.609375 0 
L 37.796875 0 
L 37.796875 17.1875 
L 4.890625 17.1875 
L 4.890625 26.703125 
z
" id="DejaVuSans-52"/>
       </defs>
       <use xlink:href="#DejaVuSans-52"/>
       <use x="63.623047" xlink:href="#DejaVuSans-48"/>
      </g>
     </g>
    </g>
    <g id="xtick_4">
     <g id="line2d_4">
      <g>
       <use style="stroke:#000000;stroke-width:0.8;" x="229.67063" xlink:href="#m1819897810" y="224.64"/>
      </g>
     </g>
     <g id="text_4">
      <!-- 60 -->
      <g transform="translate(223.30813 239.238438)scale(0.1 -0.1)">
       <defs>
        <path d="M 33.015625 40.375 
Q 26.375 40.375 22.484375 35.828125 
Q 18.609375 31.296875 18.609375 23.390625 
Q 18.609375 15.53125 22.484375 10.953125 
Q 26.375 6.390625 33.015625 6.390625 
Q 39.65625 6.390625 43.53125 10.953125 
Q 47.40625 15.53125 47.40625 23.390625 
Q 47.40625 31.296875 43.53125 35.828125 
Q 39.65625 40.375 33.015625 40.375 
z
M 52.59375 71.296875 
L 52.59375 62.3125 
Q 48.875 64.0625 45.09375 64.984375 
Q 41.3125 65.921875 37.59375 65.921875 
Q 27.828125 65.921875 22.671875 59.328125 
Q 17.53125 52.734375 16.796875 39.40625 
Q 19.671875 43.65625 24.015625 45.921875 
Q 28.375 48.1875 33.59375 48.1875 
Q 44.578125 48.1875 50.953125 41.515625 
Q 57.328125 34.859375 57.328125 23.390625 
Q 57.328125 12.15625 50.6875 5.359375 
Q 44.046875 -1.421875 33.015625 -1.421875 
Q 20.359375 -1.421875 13.671875 8.265625 
Q 6.984375 17.96875 6.984375 36.375 
Q 6.984375 53.65625 15.1875 63.9375 
Q 23.390625 74.21875 37.203125 74.21875 
Q 40.921875 74.21875 44.703125 73.484375 
Q 48.484375 72.75 52.59375 71.296875 
z
" id="DejaVuSans-54"/>
       </defs>
       <use xlink:href="#DejaVuSans-54"/>
       <use x="63.623047" xlink:href="#DejaVuSans-48"/>
      </g>
     </g>
    </g>
    <g id="xtick_5">
     <g id="line2d_5">
      <g>
       <use style="stroke:#000000;stroke-width:0.8;" x="286.561029" xlink:href="#m1819897810" y="224.64"/>
      </g>
     </g>
     <g id="text_5">
      <!-- 80 -->
      <g transform="translate(280.198529 239.238438)scale(0.1 -0.1)">
       <defs>
        <path d="M 31.78125 34.625 
Q 24.75 34.625 20.71875 30.859375 
Q 16.703125 27.09375 16.703125 20.515625 
Q 16.703125 13.921875 20.71875 10.15625 
Q 24.75 6.390625 31.78125 6.390625 
Q 38.8125 6.390625 42.859375 10.171875 
Q 46.921875 13.96875 46.921875 20.515625 
Q 46.921875 27.09375 42.890625 30.859375 
Q 38.875 34.625 31.78125 34.625 
z
M 21.921875 38.8125 
Q 15.578125 40.375 12.03125 44.71875 
Q 8.5 49.078125 8.5 55.328125 
Q 8.5 64.0625 14.71875 69.140625 
Q 20.953125 74.21875 31.78125 74.21875 
Q 42.671875 74.21875 48.875 69.140625 
Q 55.078125 64.0625 55.078125 55.328125 
Q 55.078125 49.078125 51.53125 44.71875 
Q 48 40.375 41.703125 38.8125 
Q 48.828125 37.15625 52.796875 32.3125 
Q 56.78125 27.484375 56.78125 20.515625 
Q 56.78125 9.90625 50.3125 4.234375 
Q 43.84375 -1.421875 31.78125 -1.421875 
Q 19.734375 -1.421875 13.25 4.234375 
Q 6.78125 9.90625 6.78125 20.515625 
Q 6.78125 27.484375 10.78125 32.3125 
Q 14.796875 37.15625 21.921875 38.8125 
z
M 18.3125 54.390625 
Q 18.3125 48.734375 21.84375 45.5625 
Q 25.390625 42.390625 31.78125 42.390625 
Q 38.140625 42.390625 41.71875 45.5625 
Q 45.3125 48.734375 45.3125 54.390625 
Q 45.3125 60.0625 41.71875 63.234375 
Q 38.140625 66.40625 31.78125 66.40625 
Q 25.390625 66.40625 21.84375 63.234375 
Q 18.3125 60.0625 18.3125 54.390625 
z
" id="DejaVuSans-56"/>
       </defs>
       <use xlink:href="#DejaVuSans-56"/>
       <use x="63.623047" xlink:href="#DejaVuSans-48"/>
      </g>
     </g>
    </g>
    <g id="xtick_6">
     <g id="line2d_6">
      <g>
       <use style="stroke:#000000;stroke-width:0.8;" x="343.451428" xlink:href="#m1819897810" y="224.64"/>
      </g>
     </g>
     <g id="text_6">
      <!-- 100 -->
      <g transform="translate(333.907678 239.238438)scale(0.1 -0.1)">
       <defs>
        <path d="M 12.40625 8.296875 
L 28.515625 8.296875 
L 28.515625 63.921875 
L 10.984375 60.40625 
L 10.984375 69.390625 
L 28.421875 72.90625 
L 38.28125 72.90625 
L 38.28125 8.296875 
L 54.390625 8.296875 
L 54.390625 0 
L 12.40625 0 
z
" id="DejaVuSans-49"/>
       </defs>
       <use xlink:href="#DejaVuSans-49"/>
       <use x="63.623047" xlink:href="#DejaVuSans-48"/>
       <use x="127.246094" xlink:href="#DejaVuSans-48"/>
      </g>
     </g>
    </g>
    <g id="text_7">
     <!-- Month -->
     <g transform="translate(195.510156 252.916563)scale(0.1 -0.1)">
      <defs>
       <path d="M 9.8125 72.90625 
L 24.515625 72.90625 
L 43.109375 23.296875 
L 61.8125 72.90625 
L 76.515625 72.90625 
L 76.515625 0 
L 66.890625 0 
L 66.890625 64.015625 
L 48.09375 14.015625 
L 38.1875 14.015625 
L 19.390625 64.015625 
L 19.390625 0 
L 9.8125 0 
z
" id="DejaVuSans-77"/>
       <path d="M 30.609375 48.390625 
Q 23.390625 48.390625 19.1875 42.75 
Q 14.984375 37.109375 14.984375 27.296875 
Q 14.984375 17.484375 19.15625 11.84375 
Q 23.34375 6.203125 30.609375 6.203125 
Q 37.796875 6.203125 41.984375 11.859375 
Q 46.1875 17.53125 46.1875 27.296875 
Q 46.1875 37.015625 41.984375 42.703125 
Q 37.796875 48.390625 30.609375 48.390625 
z
M 30.609375 56 
Q 42.328125 56 49.015625 48.375 
Q 55.71875 40.765625 55.71875 27.296875 
Q 55.71875 13.875 49.015625 6.21875 
Q 42.328125 -1.421875 30.609375 -1.421875 
Q 18.84375 -1.421875 12.171875 6.21875 
Q 5.515625 13.875 5.515625 27.296875 
Q 5.515625 40.765625 12.171875 48.375 
Q 18.84375 56 30.609375 56 
z
" id="DejaVuSans-111"/>
       <path d="M 54.890625 33.015625 
L 54.890625 0 
L 45.90625 0 
L 45.90625 32.71875 
Q 45.90625 40.484375 42.875 44.328125 
Q 39.84375 48.1875 33.796875 48.1875 
Q 26.515625 48.1875 22.3125 43.546875 
Q 18.109375 38.921875 18.109375 30.90625 
L 18.109375 0 
L 9.078125 0 
L 9.078125 54.6875 
L 18.109375 54.6875 
L 18.109375 46.1875 
Q 21.34375 51.125 25.703125 53.5625 
Q 30.078125 56 35.796875 56 
Q 45.21875 56 50.046875 50.171875 
Q 54.890625 44.34375 54.890625 33.015625 
z
" id="DejaVuSans-110"/>
       <path d="M 18.3125 70.21875 
L 18.3125 54.6875 
L 36.8125 54.6875 
L 36.8125 47.703125 
L 18.3125 47.703125 
L 18.3125 18.015625 
Q 18.3125 11.328125 20.140625 9.421875 
Q 21.96875 7.515625 27.59375 7.515625 
L 36.8125 7.515625 
L 36.8125 0 
L 27.59375 0 
Q 17.1875 0 13.234375 3.875 
Q 9.28125 7.765625 9.28125 18.015625 
L 9.28125 47.703125 
L 2.6875 47.703125 
L 2.6875 54.6875 
L 9.28125 54.6875 
L 9.28125 70.21875 
z
" id="DejaVuSans-116"/>
       <path d="M 54.890625 33.015625 
L 54.890625 0 
L 45.90625 0 
L 45.90625 32.71875 
Q 45.90625 40.484375 42.875 44.328125 
Q 39.84375 48.1875 33.796875 48.1875 
Q 26.515625 48.1875 22.3125 43.546875 
Q 18.109375 38.921875 18.109375 30.90625 
L 18.109375 0 
L 9.078125 0 
L 9.078125 75.984375 
L 18.109375 75.984375 
L 18.109375 46.1875 
Q 21.34375 51.125 25.703125 53.5625 
Q 30.078125 56 35.796875 56 
Q 45.21875 56 50.046875 50.171875 
Q 54.890625 44.34375 54.890625 33.015625 
z
" id="DejaVuSans-104"/>
      </defs>
      <use xlink:href="#DejaVuSans-77"/>
      <use x="86.279297" xlink:href="#DejaVuSans-111"/>
      <use x="147.460938" xlink:href="#DejaVuSans-110"/>
      <use x="210.839844" xlink:href="#DejaVuSans-116"/>
      <use x="250.048828" xlink:href="#DejaVuSans-104"/>
     </g>
    </g>
   </g>
   <g id="matplotlib.axis_2">
    <g id="ytick_1">
     <g id="line2d_7">
      <defs>
       <path d="M 0 0 
L -3.5 0 
" id="m4798717075" style="stroke:#000000;stroke-width:0.8;"/>
      </defs>
      <g>
       <use style="stroke:#000000;stroke-width:0.8;" x="43.78125" xlink:href="#m4798717075" y="199.38177"/>
      </g>
     </g>
     <g id="text_8">
      <!-- 0.1 -->
      <g transform="translate(20.878125 203.180989)scale(0.1 -0.1)">
       <defs>
        <path d="M 10.6875 12.40625 
L 21 12.40625 
L 21 0 
L 10.6875 0 
z
" id="DejaVuSans-46"/>
       </defs>
       <use xlink:href="#DejaVuSans-48"/>
       <use x="63.623047" xlink:href="#DejaVuSans-46"/>
       <use x="95.410156" xlink:href="#DejaVuSans-49"/>
      </g>
     </g>
    </g>
    <g id="ytick_2">
     <g id="line2d_8">
      <g>
       <use style="stroke:#000000;stroke-width:0.8;" x="43.78125" xlink:href="#m4798717075" y="169.939179"/>
      </g>
     </g>
     <g id="text_9">
      <!-- 0.2 -->
      <g transform="translate(20.878125 173.738398)scale(0.1 -0.1)">
       <use xlink:href="#DejaVuSans-48"/>
       <use x="63.623047" xlink:href="#DejaVuSans-46"/>
       <use x="95.410156" xlink:href="#DejaVuSans-50"/>
      </g>
     </g>
    </g>
    <g id="ytick_3">
     <g id="line2d_9">
      <g>
       <use style="stroke:#000000;stroke-width:0.8;" x="43.78125" xlink:href="#m4798717075" y="140.496589"/>
      </g>
     </g>
     <g id="text_10">
      <!-- 0.3 -->
      <g transform="translate(20.878125 144.295807)scale(0.1 -0.1)">
       <defs>
        <path d="M 40.578125 39.3125 
Q 47.65625 37.796875 51.625 33 
Q 55.609375 28.21875 55.609375 21.1875 
Q 55.609375 10.40625 48.1875 4.484375 
Q 40.765625 -1.421875 27.09375 -1.421875 
Q 22.515625 -1.421875 17.65625 -0.515625 
Q 12.796875 0.390625 7.625 2.203125 
L 7.625 11.71875 
Q 11.71875 9.328125 16.59375 8.109375 
Q 21.484375 6.890625 26.8125 6.890625 
Q 36.078125 6.890625 40.9375 10.546875 
Q 45.796875 14.203125 45.796875 21.1875 
Q 45.796875 27.640625 41.28125 31.265625 
Q 36.765625 34.90625 28.71875 34.90625 
L 20.21875 34.90625 
L 20.21875 43.015625 
L 29.109375 43.015625 
Q 36.375 43.015625 40.234375 45.921875 
Q 44.09375 48.828125 44.09375 54.296875 
Q 44.09375 59.90625 40.109375 62.90625 
Q 36.140625 65.921875 28.71875 65.921875 
Q 24.65625 65.921875 20.015625 65.03125 
Q 15.375 64.15625 9.8125 62.3125 
L 9.8125 71.09375 
Q 15.4375 72.65625 20.34375 73.4375 
Q 25.25 74.21875 29.59375 74.21875 
Q 40.828125 74.21875 47.359375 69.109375 
Q 53.90625 64.015625 53.90625 55.328125 
Q 53.90625 49.265625 50.4375 45.09375 
Q 46.96875 40.921875 40.578125 39.3125 
z
" id="DejaVuSans-51"/>
       </defs>
       <use xlink:href="#DejaVuSans-48"/>
       <use x="63.623047" xlink:href="#DejaVuSans-46"/>
       <use x="95.410156" xlink:href="#DejaVuSans-51"/>
      </g>
     </g>
    </g>
    <g id="ytick_4">
     <g id="line2d_10">
      <g>
       <use style="stroke:#000000;stroke-width:0.8;" x="43.78125" xlink:href="#m4798717075" y="111.053998"/>
      </g>
     </g>
     <g id="text_11">
      <!-- 0.4 -->
      <g transform="translate(20.878125 114.853217)scale(0.1 -0.1)">
       <use xlink:href="#DejaVuSans-48"/>
       <use x="63.623047" xlink:href="#DejaVuSans-46"/>
       <use x="95.410156" xlink:href="#DejaVuSans-52"/>
      </g>
     </g>
    </g>
    <g id="ytick_5">
     <g id="line2d_11">
      <g>
       <use style="stroke:#000000;stroke-width:0.8;" x="43.78125" xlink:href="#m4798717075" y="81.611407"/>
      </g>
     </g>
     <g id="text_12">
      <!-- 0.5 -->
      <g transform="translate(20.878125 85.410626)scale(0.1 -0.1)">
       <defs>
        <path d="M 10.796875 72.90625 
L 49.515625 72.90625 
L 49.515625 64.59375 
L 19.828125 64.59375 
L 19.828125 46.734375 
Q 21.96875 47.46875 24.109375 47.828125 
Q 26.265625 48.1875 28.421875 48.1875 
Q 40.625 48.1875 47.75 41.5 
Q 54.890625 34.8125 54.890625 23.390625 
Q 54.890625 11.625 47.5625 5.09375 
Q 40.234375 -1.421875 26.90625 -1.421875 
Q 22.3125 -1.421875 17.546875 -0.640625 
Q 12.796875 0.140625 7.71875 1.703125 
L 7.71875 11.625 
Q 12.109375 9.234375 16.796875 8.0625 
Q 21.484375 6.890625 26.703125 6.890625 
Q 35.15625 6.890625 40.078125 11.328125 
Q 45.015625 15.765625 45.015625 23.390625 
Q 45.015625 31 40.078125 35.4375 
Q 35.15625 39.890625 26.703125 39.890625 
Q 22.75 39.890625 18.8125 39.015625 
Q 14.890625 38.140625 10.796875 36.28125 
z
" id="DejaVuSans-53"/>
       </defs>
       <use xlink:href="#DejaVuSans-48"/>
       <use x="63.623047" xlink:href="#DejaVuSans-46"/>
       <use x="95.410156" xlink:href="#DejaVuSans-53"/>
      </g>
     </g>
    </g>
    <g id="ytick_6">
     <g id="line2d_12">
      <g>
       <use style="stroke:#000000;stroke-width:0.8;" x="43.78125" xlink:href="#m4798717075" y="52.168817"/>
      </g>
     </g>
     <g id="text_13">
      <!-- 0.6 -->
      <g transform="translate(20.878125 55.968035)scale(0.1 -0.1)">
       <use xlink:href="#DejaVuSans-48"/>
       <use x="63.623047" xlink:href="#DejaVuSans-46"/>
       <use x="95.410156" xlink:href="#DejaVuSans-54"/>
      </g>
     </g>
    </g>
    <g id="ytick_7">
     <g id="line2d_13">
      <g>
       <use style="stroke:#000000;stroke-width:0.8;" x="43.78125" xlink:href="#m4798717075" y="22.726226"/>
      </g>
     </g>
     <g id="text_14">
      <!-- 0.7 -->
      <g transform="translate(20.878125 26.525445)scale(0.1 -0.1)">
       <defs>
        <path d="M 8.203125 72.90625 
L 55.078125 72.90625 
L 55.078125 68.703125 
L 28.609375 0 
L 18.3125 0 
L 43.21875 64.59375 
L 8.203125 64.59375 
z
" id="DejaVuSans-55"/>
       </defs>
       <use xlink:href="#DejaVuSans-48"/>
       <use x="63.623047" xlink:href="#DejaVuSans-46"/>
       <use x="95.410156" xlink:href="#DejaVuSans-55"/>
      </g>
     </g>
    </g>
    <g id="text_15">
     <!-- SIF -->
     <g transform="translate(14.798438 123.445)rotate(-90)scale(0.1 -0.1)">
      <defs>
       <path d="M 53.515625 70.515625 
L 53.515625 60.890625 
Q 47.90625 63.578125 42.921875 64.890625 
Q 37.9375 66.21875 33.296875 66.21875 
Q 25.25 66.21875 20.875 63.09375 
Q 16.5 59.96875 16.5 54.203125 
Q 16.5 49.359375 19.40625 46.890625 
Q 22.3125 44.4375 30.421875 42.921875 
L 36.375 41.703125 
Q 47.40625 39.59375 52.65625 34.296875 
Q 57.90625 29 57.90625 20.125 
Q 57.90625 9.515625 50.796875 4.046875 
Q 43.703125 -1.421875 29.984375 -1.421875 
Q 24.8125 -1.421875 18.96875 -0.25 
Q 13.140625 0.921875 6.890625 3.21875 
L 6.890625 13.375 
Q 12.890625 10.015625 18.65625 8.296875 
Q 24.421875 6.59375 29.984375 6.59375 
Q 38.421875 6.59375 43.015625 9.90625 
Q 47.609375 13.234375 47.609375 19.390625 
Q 47.609375 24.75 44.3125 27.78125 
Q 41.015625 30.8125 33.5 32.328125 
L 27.484375 33.5 
Q 16.453125 35.6875 11.515625 40.375 
Q 6.59375 45.0625 6.59375 53.421875 
Q 6.59375 63.09375 13.40625 68.65625 
Q 20.21875 74.21875 32.171875 74.21875 
Q 37.3125 74.21875 42.625 73.28125 
Q 47.953125 72.359375 53.515625 70.515625 
z
" id="DejaVuSans-83"/>
       <path d="M 9.8125 72.90625 
L 19.671875 72.90625 
L 19.671875 0 
L 9.8125 0 
z
" id="DejaVuSans-73"/>
       <path d="M 9.8125 72.90625 
L 51.703125 72.90625 
L 51.703125 64.59375 
L 19.671875 64.59375 
L 19.671875 43.109375 
L 48.578125 43.109375 
L 48.578125 34.8125 
L 19.671875 34.8125 
L 19.671875 0 
L 9.8125 0 
z
" id="DejaVuSans-70"/>
      </defs>
      <use xlink:href="#DejaVuSans-83"/>
      <use x="63.476562" xlink:href="#DejaVuSans-73"/>
      <use x="92.96875" xlink:href="#DejaVuSans-70"/>
     </g>
    </g>
   </g>
   <g id="patch_3">
    <path d="M 43.78125 224.64 
L 43.78125 7.2 
" style="fill:none;stroke:#000000;stroke-linecap:square;stroke-linejoin:miter;stroke-width:0.8;"/>
   </g>
   <g id="patch_4">
    <path d="M 378.58125 224.64 
L 378.58125 7.2 
" style="fill:none;stroke:#000000;stroke-linecap:square;stroke-linejoin:miter;stroke-width:0.8;"/>
   </g>
   <g id="patch_5">
    <path d="M 43.78125 224.64 
L 378.58125 224.64 
" style="fill:none;stroke:#000000;stroke-linecap:square;stroke-linejoin:miter;stroke-width:0.8;"/>
   </g>
   <g id="patch_6">
    <path d="M 43.78125 7.2 
L 378.58125 7.2 
" style="fill:none;stroke:#000000;stroke-linecap:square;stroke-linejoin:miter;stroke-width:0.8;"/>
   </g>
   <g id="legend_1">
    <g id="patch_7">
     <path d="M 50.78125 219.64 
L 97.83125 219.64 
Q 99.83125 219.64 99.83125 217.64 
L 99.83125 203.961875 
Q 99.83125 201.961875 97.83125 201.961875 
L 50.78125 201.961875 
Q 48.78125 201.961875 48.78125 203.961875 
L 48.78125 217.64 
Q 48.78125 219.64 50.78125 219.64 
z
" style="fill:#ffffff;opacity:0.8;stroke:#cccccc;stroke-linejoin:miter;"/>
    </g>
    <g id="PathCollection_2">
     <g>
      <use style="fill:#1f77b4;stroke:#1f77b4;" x="62.78125" xlink:href="#m4823778409" y="210.935313"/>
     </g>
    </g>
    <g id="text_16">
     <!-- SIF -->
     <g transform="translate(80.78125 213.560313)scale(0.1 -0.1)">
      <use xlink:href="#DejaVuSans-83"/>
      <use x="63.476562" xlink:href="#DejaVuSans-73"/>
      <use x="92.96875" xlink:href="#DejaVuSans-70"/>
     </g>
    </g>
   </g>
  </g>
 </g>
 <defs>
  <clipPath id="pf4cde14d08">
   <rect height="217.44" width="334.8" x="43.78125" y="7.2"/>
  </clipPath>
 </defs>
</svg>
